<?xml version="1.0" encoding="UTF-8"?>
<svg xmlns="http://www.w3.org/2000/svg" xmlns:xlink="http://www.w3.org/1999/xlink" width="160px" height="37px" viewBox="0 0 161 37" version="1.1">
<g id="surface1">
<path style=" stroke:none;fill-rule:nonzero;fill:rgb(100%,100%,100%);fill-opacity:1;" d="M 36.046875 12.304688 L 39.753906 12.304688 L 39.753906 25.347656 L 43.460938 25.347656 L 43.460938 12.304688 L 47.171875 12.304688 L 47.171875 8.953125 L 36.046875 8.953125 Z M 36.046875 12.304688 "/>
<path style=" stroke:none;fill-rule:nonzero;fill:rgb(100%,100%,100%);fill-opacity:1;" d="M 52.359375 15.867188 L 52.359375 13.796875 L 48.652344 13.796875 L 48.652344 25.347656 L 52.359375 25.347656 L 52.359375 20.855469 C 52.359375 19.039062 53.378906 17.898438 54.421875 17.527344 C 55.199219 17.28125 56.03125 17.28125 56.808594 17.527344 L 56.808594 13.421875 C 54.539062 13.5625 53.125 14.261719 52.359375 15.867188 Z M 52.359375 15.867188 "/>
<path style=" stroke:none;fill-rule:nonzero;fill:rgb(100%,100%,100%);fill-opacity:1;" d="M 63.855469 13.421875 C 62.046875 13.421875 60.449219 13.980469 59.589844 14.542969 L 60.703125 17.210938 C 61.5 16.773438 62.390625 16.523438 63.296875 16.492188 C 64.597656 16.492188 65.246094 17.234375 65.289062 18.585938 C 62.023438 17.304688 58.292969 18.726562 58.292969 21.824219 C 58.292969 23.894531 59.730469 25.714844 62.324219 25.714844 C 63.808594 25.714844 65.035156 25.011719 65.714844 24.035156 L 65.898438 25.339844 L 69.050781 25.339844 L 69.050781 19.144531 C 69.042969 14.960938 66.570312 13.421875 63.855469 13.421875 Z M 63.320312 23.023438 C 62.601562 23.023438 62 22.628906 62 21.71875 C 62 20.460938 63.597656 20.113281 65.335938 20.648438 C 65.175781 21.945312 64.339844 23.019531 63.320312 23.019531 Z M 63.320312 23.023438 "/>
<path style=" stroke:none;fill-rule:nonzero;fill:rgb(100%,100%,100%);fill-opacity:1;" d="M 79.425781 14.960938 C 78.824219 14.097656 77.664062 13.421875 76.253906 13.421875 C 73.191406 13.421875 70.898438 16.171875 70.898438 19.570312 C 70.898438 22.972656 73.191406 25.71875 76.253906 25.71875 C 77.664062 25.71875 78.824219 25.042969 79.425781 24.183594 L 79.425781 25.347656 L 83.132812 25.347656 L 83.132812 8.578125 L 79.425781 8.578125 Z M 77.015625 22.367188 C 75.671875 22.367188 74.605469 21.109375 74.605469 19.578125 C 74.605469 18.046875 75.671875 16.792969 77.015625 16.792969 C 78.359375 16.792969 79.425781 18.050781 79.425781 19.578125 C 79.425781 21.105469 78.359375 22.367188 77.015625 22.367188 Z M 77.015625 22.367188 "/>
<path style=" stroke:none;fill-rule:nonzero;fill:rgb(100%,100%,100%);fill-opacity:1;" d="M 90.96875 13.421875 C 87.304688 13.421875 84.988281 16.171875 84.988281 19.570312 C 84.988281 22.972656 87.492188 25.71875 91.246094 25.71875 C 93.09375 25.71875 94.746094 24.855469 95.695312 23.785156 L 93.472656 21.597656 C 92.886719 22.09375 92.148438 22.367188 91.386719 22.371094 C 89.949219 22.371094 89.113281 21.71875 88.789062 20.789062 L 96.484375 20.789062 C 96.621094 20.371094 96.667969 19.648438 96.667969 19.15625 C 96.644531 15.664062 94.234375 13.421875 90.96875 13.421875 Z M 88.742188 18.359375 C 89.050781 17.429688 89.738281 16.777344 91.054688 16.777344 C 92.257812 16.777344 92.886719 17.476562 93.070312 18.359375 Z M 88.742188 18.359375 "/>
<path style=" stroke:none;fill-rule:nonzero;fill:rgb(100%,100%,100%);fill-opacity:1;" d="M 103.574219 17.777344 C 102.648438 17.613281 102.414062 17.429688 102.414062 17.054688 C 102.414062 16.683594 102.878906 16.449219 103.667969 16.519531 C 104.457031 16.578125 105.214844 16.871094 105.847656 17.359375 L 107.253906 14.585938 C 105.515625 13.421875 103.402344 13.421875 103.402344 13.421875 C 100.296875 13.421875 98.695312 15.261719 98.695312 17.148438 C 98.695312 18.429688 99.066406 20.246094 102.753906 20.96875 C 103.816406 21.179688 104.449219 21.339844 104.449219 21.875 C 104.449219 22.320312 103.800781 22.652344 102.480469 22.503906 C 101.785156 22.433594 100.742188 22.109375 99.628906 21.203125 L 98.144531 23.996094 C 98.703125 24.554688 100.457031 25.71875 103.011719 25.71875 C 106.464844 25.71875 108.15625 23.878906 108.15625 21.714844 C 108.164062 19.246094 106.191406 18.21875 103.574219 17.777344 Z M 103.574219 17.777344 "/>
<path style=" stroke:none;fill-rule:nonzero;fill:rgb(100%,100%,100%);fill-opacity:1;" d="M 119.84375 23.832031 L 117.757812 21.507812 C 117.289062 22.074219 116.585938 22.394531 115.855469 22.371094 C 114.328125 22.371094 113.167969 21.113281 113.167969 19.585938 C 113.167969 18.054688 114.328125 16.796875 115.855469 16.796875 C 116.585938 16.777344 117.289062 17.09375 117.757812 17.660156 L 119.84375 15.335938 C 118.9375 14.21875 117.5 13.453125 115.625 13.453125 C 111.871094 13.453125 109.460938 16.199219 109.460938 19.597656 C 109.460938 23 111.871094 25.746094 115.625 25.746094 C 117.5 25.71875 118.9375 24.953125 119.84375 23.832031 Z M 119.84375 23.832031 "/>
<path style=" stroke:none;fill-rule:nonzero;fill:rgb(25.882353%,91.764706%,45.882353%);fill-opacity:1;" d="M 127.074219 13.421875 C 123.410156 13.421875 120.953125 16.171875 120.953125 19.570312 C 120.953125 21.582031 121.832031 23.367188 123.300781 24.488281 C 121.378906 28.167969 118.722656 33.277344 118.460938 33.90625 C 118.296875 34.335938 118.390625 34.820312 118.699219 35.15625 C 119.121094 35.664062 119.851562 35.960938 120.433594 35.875 L 120.515625 35.859375 C 120.921875 35.777344 121.246094 35.472656 121.359375 35.074219 L 125.542969 25.542969 C 126.042969 25.660156 126.558594 25.71875 127.074219 25.71875 C 130.414062 25.667969 133.09375 22.929688 133.09375 19.570312 C 133.09375 16.214844 130.414062 13.476562 127.074219 13.421875 Z M 127.074219 22.367188 C 125.726562 22.367188 124.664062 21.109375 124.664062 19.578125 C 124.664062 18.046875 125.726562 16.792969 127.074219 16.792969 C 128.417969 16.792969 129.484375 18.050781 129.484375 19.578125 C 129.484375 21.105469 128.417969 22.367188 127.074219 22.367188 Z M 127.074219 22.367188 "/>
<path style=" stroke:none;fill-rule:nonzero;fill:rgb(25.882353%,91.764706%,45.882353%);fill-opacity:1;" d="M 141.289062 13.445312 C 137.636719 13.152344 134.972656 15.699219 134.703125 19.085938 C 134.4375 22.476562 136.707031 25.417969 140.320312 25.703125 C 140.449219 25.714844 140.582031 25.71875 140.710938 25.722656 L 142.648438 35.878906 C 142.667969 36.296875 142.917969 36.664062 143.292969 36.835938 C 143.382812 36.878906 143.480469 36.914062 143.578125 36.933594 C 144.152344 37.042969 144.75 36.910156 145.21875 36.558594 C 145.597656 36.304688 145.796875 35.851562 145.734375 35.398438 C 145.625 34.757812 144.347656 29.816406 143.15625 25.265625 C 145.765625 24.171875 147.289062 21.425781 146.84375 18.617188 C 146.402344 15.8125 144.105469 13.675781 141.289062 13.445312 Z M 143.207031 19.765625 C 143.085938 21.300781 141.925781 22.46875 140.585938 22.359375 C 139.25 22.253906 138.28125 20.914062 138.402344 19.382812 C 138.527344 17.851562 139.6875 16.683594 141.023438 16.789062 C 142.359375 16.898438 143.328125 18.234375 143.207031 19.765625 Z M 143.207031 19.765625 "/>
<path style=" stroke:none;fill-rule:nonzero;fill:rgb(100%,100%,100%);fill-opacity:1;" d="M 155.640625 13.421875 C 154.226562 13.421875 153.070312 14.097656 152.464844 14.960938 L 152.464844 13.796875 L 148.761719 13.796875 L 148.761719 31.304688 L 152.46875 31.304688 L 152.46875 24.179688 C 153.074219 25.042969 154.230469 25.71875 155.648438 25.71875 C 158.707031 25.71875 161 22.96875 161 19.570312 C 161 16.167969 158.707031 13.421875 155.640625 13.421875 Z M 154.871094 22.367188 C 153.527344 22.367188 152.460938 21.109375 152.460938 19.578125 C 152.460938 18.046875 153.527344 16.792969 154.871094 16.792969 C 156.214844 16.792969 157.28125 18.050781 157.28125 19.578125 C 157.28125 21.105469 156.226562 22.367188 154.878906 22.367188 Z M 154.871094 22.367188 "/>
<path style=" stroke:none;fill-rule:nonzero;fill:rgb(25.882353%,91.764706%,45.882353%);fill-opacity:1;" d="M 4.527344 12.867188 C 4.5625 12.757812 4.59375 12.652344 4.628906 12.542969 C 4.652344 12.472656 4.722656 12.433594 4.789062 12.449219 C 5.140625 12.523438 6.148438 12.6875 6.785156 12.292969 C 6.921875 12.210938 7.042969 12.109375 7.144531 11.984375 C 7.25 11.863281 7.292969 11.699219 7.265625 11.539062 C 7.234375 11.382812 7.132812 11.246094 6.992188 11.171875 C 6.707031 11.027344 6.398438 10.941406 6.078125 10.921875 C 5.699219 10.871094 5.308594 10.832031 4.941406 10.746094 C 4.691406 10.6875 4.445312 10.597656 4.21875 10.476562 C 3.46875 10.097656 3.390625 9.226562 3.753906 8.632812 C 3.957031 8.3125 4.234375 8.050781 4.566406 7.875 C 4.601562 7.859375 4.632812 7.828125 4.648438 7.789062 C 4.664062 7.75 4.664062 7.703125 4.648438 7.667969 C 4.585938 7.460938 4.53125 7.257812 4.472656 7.046875 C 4.460938 7.003906 4.464844 6.957031 4.484375 6.917969 C 4.503906 6.878906 4.542969 6.851562 4.585938 6.835938 L 5.394531 6.617188 C 5.480469 6.589844 5.574219 6.644531 5.597656 6.730469 L 5.777344 7.378906 C 5.792969 7.429688 5.839844 7.464844 5.894531 7.457031 C 6.320312 7.417969 6.75 7.4375 7.171875 7.511719 C 7.21875 7.519531 7.257812 7.550781 7.285156 7.59375 C 7.308594 7.632812 7.3125 7.683594 7.296875 7.730469 L 7.050781 8.410156 C 7.023438 8.496094 6.929688 8.539062 6.847656 8.511719 C 6.378906 8.363281 5.871094 8.382812 5.414062 8.566406 C 5.234375 8.628906 5.066406 8.726562 4.921875 8.851562 C 4.601562 9.125 4.652344 9.496094 5.050781 9.625 C 5.402344 9.726562 5.757812 9.804688 6.121094 9.863281 C 6.429688 9.925781 6.738281 9.960938 7.046875 10.023438 C 8.574219 10.347656 9.007812 11.574219 7.914062 12.703125 C 7.855469 12.761719 7.792969 12.8125 7.730469 12.867188 L 11.132812 12.867188 C 11.1875 12.757812 11.238281 12.648438 11.285156 12.539062 C 11.539062 11.972656 11.699219 11.367188 11.765625 10.75 C 11.941406 9.078125 11.402344 7.410156 10.285156 6.160156 C 9.167969 4.910156 7.574219 4.199219 5.902344 4.195312 L 5.761719 4.195312 C 2.558594 4.269531 0 6.902344 0 10.125 C 0 11.078125 0.230469 12.019531 0.667969 12.867188 Z M 4.527344 12.867188 "/>
<path style=" stroke:none;fill-rule:nonzero;fill:rgb(25.882353%,91.764706%,45.882353%);fill-opacity:1;" d="M 2.773438 3.558594 C 2.75 3.625 2.734375 3.691406 2.722656 3.761719 C 2.710938 3.828125 2.703125 3.898438 2.703125 3.964844 L 2.8125 3.90625 C 2.878906 3.871094 2.949219 3.839844 3.019531 3.8125 C 3.136719 3.757812 3.253906 3.707031 3.375 3.65625 C 3.933594 3.433594 4.519531 3.289062 5.117188 3.222656 C 5.242188 3.207031 5.371094 3.199219 5.5 3.191406 L 5.523438 3.214844 L 5.53125 3.191406 C 5.601562 3.191406 5.667969 3.179688 5.734375 3.179688 L 5.855469 3.179688 C 5.828125 3.132812 5.804688 3.082031 5.773438 3.039062 C 5.742188 2.992188 5.691406 2.933594 5.648438 2.882812 L 6.363281 0.878906 C 6.402344 0.765625 6.378906 0.644531 6.304688 0.554688 C 6.230469 0.464844 6.113281 0.421875 6 0.441406 C 5.097656 0.5625 4.328125 -0.179688 3.597656 0.078125 C 2.789062 0.363281 3.597656 1.316406 1.6875 1.714844 C 1.570312 1.738281 1.472656 1.828125 1.4375 1.941406 C 1.402344 2.058594 1.433594 2.183594 1.519531 2.269531 Z M 2.773438 3.558594 "/>
<path style=" stroke:none;fill-rule:nonzero;fill:rgb(25.882353%,91.764706%,45.882353%);fill-opacity:1;" d="M 18.21875 4.378906 C 18.171875 4.429688 18.128906 4.480469 18.089844 4.535156 C 18.035156 4.613281 17.988281 4.695312 17.949219 4.78125 C 18.023438 4.78125 18.101562 4.792969 18.167969 4.800781 C 18.203125 4.800781 18.234375 4.816406 18.269531 4.820312 C 18.382812 4.835938 18.488281 4.859375 18.597656 4.878906 C 19.203125 5 19.785156 5.210938 20.328125 5.5 C 20.425781 5.550781 20.527344 5.605469 20.621094 5.664062 C 20.652344 5.679688 20.683594 5.695312 20.710938 5.714844 C 20.773438 5.753906 20.835938 5.796875 20.894531 5.835938 C 20.925781 5.714844 20.941406 5.59375 20.941406 5.46875 C 20.941406 5.3125 20.917969 5.15625 20.867188 5.007812 L 21.855469 3.996094 C 21.957031 3.890625 21.996094 3.738281 21.957031 3.597656 C 21.917969 3.457031 21.804688 3.351562 21.664062 3.3125 C 20.140625 2.929688 20.804688 2.109375 20.09375 1.859375 C 19.460938 1.640625 18.792969 2.242188 18.019531 2.199219 C 17.886719 2.195312 17.757812 2.261719 17.679688 2.371094 C 17.601562 2.480469 17.585938 2.621094 17.628906 2.746094 Z M 18.21875 4.378906 "/>
<path style=" stroke:none;fill-rule:nonzero;fill:rgb(100%,100%,100%);fill-opacity:1;" d="M 25.847656 1.917969 L 22.765625 7.800781 C 22.824219 7.898438 22.882812 7.992188 22.933594 8.089844 C 23.085938 8.371094 23.210938 8.660156 23.320312 8.960938 C 24.679688 6.742188 26.964844 3.003906 27.171875 2.578125 C 27.488281 1.957031 26.117188 1.152344 25.847656 1.917969 Z M 25.847656 1.917969 "/>
<path style=" stroke:none;fill-rule:nonzero;fill:rgb(25.882353%,91.764706%,45.882353%);fill-opacity:1;" d="M 14.976562 12.867188 C 14.949219 12.835938 14.9375 12.792969 14.941406 12.75 C 14.945312 12.710938 14.964844 12.671875 15 12.644531 L 15.460938 12.253906 C 15.492188 12.226562 15.53125 12.214844 15.574219 12.21875 C 15.613281 12.222656 15.652344 12.242188 15.679688 12.273438 C 15.871094 12.523438 16.121094 12.726562 16.402344 12.867188 L 17.925781 12.867188 C 18.054688 12.710938 18.070312 12.492188 17.972656 12.316406 C 17.824219 12.066406 17.625 11.847656 17.390625 11.675781 C 17.121094 11.453125 16.84375 11.234375 16.597656 10.988281 C 16.433594 10.820312 16.289062 10.632812 16.171875 10.425781 C 15.777344 9.765625 16.140625 9.0625 16.710938 8.78125 C 17.019531 8.636719 17.359375 8.570312 17.699219 8.59375 C 17.738281 8.601562 17.777344 8.59375 17.808594 8.570312 C 17.839844 8.546875 17.859375 8.511719 17.863281 8.472656 C 17.914062 8.289062 17.972656 8.109375 18.019531 7.921875 C 18.03125 7.878906 18.058594 7.84375 18.09375 7.824219 C 18.132812 7.800781 18.175781 7.796875 18.21875 7.8125 L 18.929688 8.027344 C 18.96875 8.035156 19.003906 8.0625 19.023438 8.101562 C 19.042969 8.136719 19.050781 8.183594 19.035156 8.222656 C 18.980469 8.410156 18.921875 8.597656 18.867188 8.789062 C 18.851562 8.84375 18.878906 8.902344 18.929688 8.929688 C 19.269531 9.101562 19.582031 9.320312 19.863281 9.578125 C 19.898438 9.609375 19.921875 9.652344 19.917969 9.703125 C 19.914062 9.75 19.890625 9.792969 19.851562 9.820312 L 19.355469 10.214844 C 19.320312 10.242188 19.28125 10.253906 19.238281 10.25 C 19.195312 10.246094 19.160156 10.222656 19.132812 10.191406 C 18.84375 9.851562 18.449219 9.621094 18.011719 9.539062 C 17.84375 9.5 17.667969 9.492188 17.5 9.515625 C 17.117188 9.574219 16.980469 9.882812 17.222656 10.183594 C 17.441406 10.433594 17.679688 10.667969 17.929688 10.886719 C 18.242188 11.152344 18.539062 11.433594 18.8125 11.734375 C 19.082031 12.042969 19.191406 12.464844 19.109375 12.867188 L 22.398438 12.867188 C 22.75 11.832031 22.78125 10.714844 22.484375 9.664062 C 22.378906 9.285156 22.230469 8.921875 22.046875 8.578125 C 21.605469 7.761719 20.957031 7.074219 20.171875 6.582031 C 19.523438 6.171875 18.796875 5.914062 18.039062 5.816406 C 17.8125 5.789062 17.585938 5.773438 17.359375 5.773438 C 15.386719 5.765625 13.574219 6.859375 12.652344 8.613281 C 12.664062 8.65625 12.667969 8.699219 12.679688 8.742188 L 12.710938 8.910156 C 12.722656 8.992188 12.738281 9.066406 12.746094 9.152344 C 12.746094 9.207031 12.761719 9.257812 12.769531 9.308594 C 12.78125 9.398438 12.789062 9.488281 12.792969 9.578125 C 12.792969 9.625 12.800781 9.667969 12.804688 9.714844 C 12.8125 9.847656 12.816406 9.984375 12.816406 10.121094 C 12.816406 10.335938 12.804688 10.550781 12.785156 10.765625 C 12.785156 10.785156 12.785156 10.800781 12.785156 10.820312 C 12.765625 11.023438 12.734375 11.222656 12.695312 11.425781 L 12.683594 11.503906 C 12.640625 11.699219 12.59375 11.890625 12.539062 12.078125 L 12.511719 12.171875 C 12.453125 12.359375 12.386719 12.542969 12.3125 12.726562 C 12.3125 12.742188 12.304688 12.757812 12.296875 12.769531 L 12.328125 12.863281 Z M 14.976562 12.867188 "/>
<path style=" stroke:none;fill-rule:nonzero;fill:rgb(100%,100%,100%);fill-opacity:1;" d="M 22.808594 13.886719 L 0.199219 13.886719 C 0.148438 13.886719 0.101562 13.910156 0.0664062 13.945312 C 0.03125 13.980469 0.0117188 14.03125 0.015625 14.078125 C 0.152344 17.640625 1.347656 20.460938 3.566406 22.433594 C 4.808594 23.535156 6.296875 24.320312 7.90625 24.722656 C 8.242188 24.796875 8.527344 25.019531 8.691406 25.324219 C 9.195312 26.304688 9.21875 27.46875 8.753906 28.46875 C 8.574219 28.886719 8.171875 29.167969 7.714844 29.191406 C 5.558594 29.304688 4.765625 30.46875 4.480469 31.429688 C 4.464844 31.480469 4.476562 31.539062 4.507812 31.582031 C 4.542969 31.632812 4.601562 31.660156 4.660156 31.660156 L 18.359375 31.660156 C 18.417969 31.660156 18.476562 31.632812 18.511719 31.582031 C 18.542969 31.539062 18.554688 31.480469 18.539062 31.429688 C 18.253906 30.46875 17.460938 29.304688 15.304688 29.191406 C 14.847656 29.167969 14.445312 28.886719 14.261719 28.46875 C 13.796875 27.464844 13.820312 26.304688 14.328125 25.324219 C 14.492188 25.019531 14.777344 24.796875 15.113281 24.722656 C 16.722656 24.320312 18.210938 23.535156 19.453125 22.433594 C 21.671875 20.460938 22.867188 17.648438 23.003906 14.078125 C 23.007812 14.03125 22.988281 13.980469 22.953125 13.945312 C 22.917969 13.90625 22.863281 13.886719 22.808594 13.886719 Z M 22.808594 13.886719 "/>
</g>
</svg>
